<?xml version="1.0" standalone="no"?>
<!DOCTYPE svg PUBLIC "-//W3C//DTD SVG 20010904//EN"
 "http://www.w3.org/TR/2001/REC-SVG-20010904/DTD/svg10.dtd">
<svg version="1.0" xmlns="http://www.w3.org/2000/svg"
 width="948.000000pt" height="948.000000pt" viewBox="0 0 948.000000 948.000000"
 preserveAspectRatio="xMidYMid meet">
<metadata>
Created by potrace 1.11, written by Peter Selinger 2001-2013
</metadata>
<g transform="translate(0.000000,948.000000) scale(0.100000,-0.100000)"
fill="#000000" stroke="none">
<path d="M5825 9470 c-80 -13 -188 -46 -250 -77 -88 -45 -3977 -2213 -4052
-2260 -107 -65 -177 -126 -243 -209 -70 -88 -122 -178 -150 -260 -18 -52 -344
-1176 -925 -3189 -174 -605 -205 -730 -205 -829 1 -336 205 -647 508 -775 41
-17 1508 -439 3260 -937 2364 -673 3210 -910 3276 -917 380 -45 747 199 870
578 54 170 1068 3739 1077 3793 19 119 0 288 -48 432 -21 60 -352 688 -1137
2150 -610 1136 -1125 2090 -1144 2120 -74 117 -203 230 -339 299 -140 70 -348
104 -498 81z m-2862 -3245 c415 -54 684 -245 817 -578 119 -298 90 -702 -71
-983 -113 -197 -291 -339 -492 -391 -51 -13 -67 -21 -64 -33 2 -8 154 -388
337 -845 183 -456 334 -836 337 -843 4 -9 -59 -12 -295 -12 l-300 0 -320 803
-319 802 -272 3 -271 2 0 -805 0 -805 -295 0 -295 0 0 1850 0 1850 694 0 c560
0 717 -3 809 -15z m1547 8 c0 -21 538 -2464 543 -2470 4 -3 9 -4 12 -2 2 3
122 552 265 1220 144 668 264 1224 267 1237 l5 22 279 0 c153 0 279 -3 279 -8
0 -21 518 -2463 524 -2469 3 -4 10 -2 15 3 5 5 130 564 277 1241 l269 1233
294 0 294 0 -6 -27 c-3 -16 -195 -846 -426 -1847 -232 -1000 -421 -1820 -421
-1822 0 -2 -124 -4 -275 -4 -151 0 -275 2 -275 4 0 5 -530 2526 -537 2554 -3
12 -10 22 -17 22 -7 0 -115 -491 -285 -1290 l-275 -1290 -277 0 c-256 0 -278
1 -283 18 -4 14 -812 3495 -844 3640 l-10 42 304 0 c167 0 304 -3 304 -7z"/>
<path d="M2050 5194 l0 -556 373 4 c410 5 430 7 557 71 35 17 90 56 121 85 98
90 142 185 160 344 27 239 -51 402 -238 501 -154 81 -324 107 -700 107 l-273
0 0 -556z"/>
</g>
</svg>
